HIERARCHY
ROOT Hips
{
 OFFSET 0.000000 0.000000 0.000000
 CHANNELS 6 Xposition Yposition Zposition Yrotation Xrotation Zrotation
 JOINT Chest
 {
  OFFSET 0.000000 10.858100 0.003500
  CHANNELS 3 Yrotation Xrotation Zrotation
  JOINT Chest2
  {
   OFFSET 0.000000 12.033100 -0.006300
   CHANNELS 3 Yrotation Xrotation Zrotation
   JOINT Chest3
   {
    OFFSET 0.000000 10.873000 0.000000
    CHANNELS 3 Yrotation Xrotation Zrotation
    JOINT Chest4
    {
     OFFSET 0.000000 10.873100 0.000000
     CHANNELS 3 Yrotation Xrotation Zrotation
     JOINT Neck
     {
      OFFSET 0.000000 15.287100 0.000000
      CHANNELS 3 Yrotation Xrotation Zrotation
      JOINT Head
      {
       OFFSET 0.000000 10.117800 -0.015000
       CHANNELS 3 Yrotation Xrotation Zrotation
       End Site
       {
        OFFSET 0.000000 19.391900 -0.007800
       }
      }
     }
     JOINT RightCollar
     {
      OFFSET -3.308500 8.525800 0.000000
      CHANNELS 3 Yrotation Xrotation Zrotation
      JOINT RightShoulder
      {
       OFFSET -15.326500 0.000000 0.000000
       CHANNELS 3 Yrotation Xrotation Zrotation
       JOINT RightElbow
       {
        OFFSET -32.728200 0.000000 0.000000
        CHANNELS 3 Yrotation Xrotation Zrotation
        JOINT RightWrist
        {
         OFFSET -26.775900 0.000000 0.000000
         CHANNELS 3 Yrotation Xrotation Zrotation
         End Site
         {
          OFFSET -20.037400 0.000000 0.000000
         }
        }
       }
      }
     }
     JOINT LeftCollar
     {
      OFFSET 3.308500 8.525800 0.000000
      CHANNELS 3 Yrotation Xrotation Zrotation
      JOINT LeftShoulder
      {
       OFFSET 15.326500 0.000000 0.000000
       CHANNELS 3 Yrotation Xrotation Zrotation
       JOINT LeftElbow
       {
        OFFSET 32.728200 0.000000 0.000000
        CHANNELS 3 Yrotation Xrotation Zrotation
        JOINT LeftWrist
        {
         OFFSET 26.775900 0.000000 0.000000
         CHANNELS 3 Yrotation Xrotation Zrotation
         End Site
         {
          OFFSET 20.037400 0.000000 0.000000
         }
        }
       }
      }
     }
    }
   }
  }
 }
 JOINT RightHip
 {
  OFFSET -8.790400 -0.016900 -0.001700
  CHANNELS 3 Yrotation Xrotation Zrotation
  JOINT RightKnee
  {
   OFFSET 0.000000 -45.668200 0.001600
   CHANNELS 3 Yrotation Xrotation Zrotation
   JOINT RightAnkle
   {
    OFFSET 0.000000 -44.710400 0.002800
    CHANNELS 3 Yrotation Xrotation Zrotation
    JOINT RightToe
    {
     OFFSET 0.000000 -7.040800 15.874000
     CHANNELS 3 Yrotation Xrotation Zrotation
     End Site
     {
      OFFSET 0.000000 -1.632900 6.946300
     }
    }
   }
  }
 }
 JOINT LeftHip
 {
  OFFSET 8.790400 -0.016900 -0.001700
  CHANNELS 3 Yrotation Xrotation Zrotation
  JOINT LeftKnee
  {
   OFFSET 0.000000 -45.668200 0.001600
   CHANNELS 3 Yrotation Xrotation Zrotation
   JOINT LeftAnkle
   {
    OFFSET 0.000000 -44.710400 0.002800
    CHANNELS 3 Yrotation Xrotation Zrotation
    JOINT LeftToe
    {
     OFFSET 0.000000 -7.040800 15.874000
     CHANNELS 3 Yrotation Xrotation Zrotation
     End Site
     {
      OFFSET 0.000000 -1.632900 6.946300
     }
    }
   }
  }
 }
}
MOTION
Frames: 7
Frame Time: 0.004167
0.000000 97.236400 0.000000 0.000000 -5.826399 0.000000 0.000000 11.116459 0.000000 0.000000 -5.290052 0.000000 0.000000 0.000000 0.000000 0.000000 0.000000 0.000000 0.000000 12.665098 0.000000 0.000000 0.575365 0.000000 0.000000 0.000000 0.000000 0.000000 0.000000 0.000000 2.337257 0.000000 0.000000 -2.337257 0.000000 0.000000 0.000000 0.000000 0.000000 0.000000 0.000000 0.000000 -2.337257 0.000000 0.000000 2.337257 0.000000 0.000000 0.000000 8.578932 0.000000 0.000000 1.905762 0.000000 0.000000 -4.658285 0.000000 0.000000 0.000000 0.000000 0.000000 8.578932 0.000000 0.000000 1.905762 0.000000 0.000000 -4.658285 0.000000 0.000000 0.000000 0.000000
-12.691300 79.609300 12.888400 -20.664043 15.238053 8.204147 3.211357 11.882024 1.511919 1.380426 5.291223 0.585474 1.380521 5.291226 0.585521 1.029501 3.969730 0.426917 -2.577725 8.847250 -4.785839 -2.731218 -19.751677 -8.139719 4.698969 4.793198 6.439635 -12.247957 -17.704142 59.929026 50.422906 -4.339896 9.935856 -3.672257 -1.089958 -22.902091 -7.783917 2.228247 -9.615628 -10.717317 -41.365488 -53.236353 -73.696656 7.762699 -33.941288 -17.201221 -6.235866 44.459942 -14.506320 -56.585484 17.724171 -9.805911 58.780392 13.823391 7.825196 -0.341095 -7.875275 -0.556170 0.970661 -2.128709 -9.241860 -31.200156 24.513383 -8.581718 48.451305 -5.295912 2.479990 -17.934188 3.934834 4.110390 -13.783500 -33.072121
-12.469600 79.548400 12.682400 -20.809043 15.241545 8.090282 3.185760 11.898890 1.515799 1.368974 5.298538 0.587841 1.368971 5.298569 0.587912 1.020832 3.975260 0.428619 -2.531635 8.826784 -4.800530 -2.632737 -19.787404 -8.191790 4.703732 4.796541 6.449518 -12.207247 -17.787714 59.962282 50.637728 -4.300577 10.139956 -4.064616 -1.251297 -22.977796 -7.808430 2.185385 -9.672540 -10.901877 -41.373180 -53.018000 -73.897324 7.653423 -33.931999 -17.240050 -6.169292 44.454281 -14.196979 -56.863756 17.575073 -9.938216 58.917854 13.996100 7.737306 -0.485789 -8.102976 -0.476077 0.997844 -1.487813 -9.382286 -31.303903 24.646097 -8.693045 48.517338 -5.385116 2.541414 -17.951551 3.863025 4.078992 -13.728021 -32.959942
-12.265700 79.481000 12.480800 -20.956376 15.240233 7.963375 3.162698 11.920046 1.526514 1.358257 5.308085 0.592955 1.358426 5.308052 0.592938 1.012865 3.982276 0.432642 -2.486976 8.812133 -4.819886 -2.534736 -19.811708 -8.252150 4.699413 4.798432 6.458636 -12.127569 -17.884587 59.996743 50.825727 -4.293034 10.330517 -4.441011 -1.435321 -23.101181 -7.829024 2.147990 -9.717451 -11.074233 -41.400599 -52.814098 -74.086216 7.540061 -33.926203 -17.279078 -6.100045 44.439017 -13.980078 -57.069294 17.474147 -9.977437 59.018763 14.219123 7.660920 -0.553514 -8.314422 -0.397971 0.945404 -1.021806 -9.599287 -31.335806 24.835146 -8.767412 48.574414 -5.507587 2.683193 -17.964531 3.823599 4.057370 -13.675680 -32.913473
-12.065400 79.416100 12.286900 -21.116019 15.235846 7.826948 3.144252 11.946523 1.540538 1.349824 5.319797 0.599497 1.349766 5.319857 0.599496 1.006302 3.991226 0.437442 -2.443327 8.803232 -4.843466 -2.437455 -19.825333 -8.320029 4.707474 4.792232 6.474706 -12.022433 -17.982886 60.026400 51.012432 -4.268617 10.472941 -4.724216 -1.561615 -23.224008 -7.837992 2.092514 -9.756609 -11.215949 -41.431976 -52.642861 -74.269194 7.434803 -33.940114 -17.317320 -6.029412 44.416378 -13.866446 -57.230566 17.483603 -10.048197 59.061866 14.281493 7.586475 -0.436687 -8.421994 -0.306866 0.779070 -0.691115 -9.571590 -31.441657 24.869525 -8.797887 48.646699 -5.384162 2.683501 -18.194090 3.703644 3.971059 -13.442276 -32.785415
-11.869700 79.359300 12.092400 -21.276811 15.232751 7.689458 3.129601 11.973427 1.555749 1.342649 5.331778 0.606443 1.342668 5.331863 0.606288 1.001062 4.000275 0.442758 -2.403602 8.801820 -4.869592 -2.346603 -19.825520 -8.390744 4.728866 4.781693 6.501938 -11.900564 -18.070197 60.053839 51.165040 -4.192398 10.550414 -4.849171 -1.665165 -23.336316 -7.861505 2.036497 -9.792481 -11.298902 -41.487751 -52.505405 -74.456304 7.337764 -33.988507 -17.350346 -5.960264 44.383913 -13.908068 -57.368306 17.644918 -10.149640 59.038628 14.157207 7.544994 -0.178207 -8.426266 -0.221955 0.586666 -0.456226 -9.283489 -31.676337 24.739510 -8.965753 48.751914 -5.181120 2.567514 -18.439752 3.667290 3.892321 -13.218958 -32.687947
-11.683000 79.307700 11.880400 -21.475885 15.164111 7.558074 3.108682 12.001064 1.563543 1.333093 5.344102 0.610137 1.333191 5.344070 0.610070 0.993709 4.009489 0.445593 -2.403808 8.793371 -4.885121 -2.339024 -19.840701 -8.421455 4.753966 4.762380 6.525367 -11.913626 -18.227075 60.207799 51.267758 -3.894728 10.672488 -4.812924 -1.868208 -23.465381 -7.877667 1.999285 -9.841086 -10.915352 -41.549905 -52.652019 -74.890304 7.279218 -34.291643 -17.437304 -5.847804 44.255573 -13.798291 -57.434427 17.834585 -10.462044 58.817991 13.840196 7.458621 0.142130 -8.397119 -0.176562 0.490871 -0.312785 -8.994551 -31.961814 24.583582 -8.805286 49.244413 -4.965569 2.109033 -19.044012 3.968578 3.797121 -12.908970 -32.662316
